<svg xmlns="http://www.w3.org/2000/svg" viewBox="0 0 328.9 328.9"><defs><style>.cls-1{fill:#fff;}.cls-2{fill:#1a1a1a;}</style></defs><g id="Layer_2" data-name="Layer 2"><g id="Layer_1-2" data-name="Layer 1"><circle class="cls-1" cx="164.45" cy="164.45" r="137.49" transform="translate(-4.44 324.33) rotate(-88.43)"/><path class="cls-2" d="M164.45,328.9C73.77,328.9,0,255.12,0,164.45S73.77,0,164.45,0,328.9,73.77,328.9,164.45,255.12,328.9,164.45,328.9Zm0-301.94C88.64,27,27,88.64,27,164.45S88.64,301.94,164.45,301.94s137.49-61.68,137.49-137.49S240.26,27,164.45,27Z"/><path class="cls-2" d="M208.39,224.55q-10.8,10.6-28.94,13.27V259H160V238.2a88,88,0,0,1-23.78-5A63.28,63.28,0,0,1,117,222.35l8.4-17.95q16.62,13,35.91,14.32V179a135.45,135.45,0,0,1-21.59-7.16A37.33,37.33,0,0,1,125,160.18q-5.92-7.73-5.92-20.15a35.62,35.62,0,0,1,5.15-18.81,42.11,42.11,0,0,1,14.42-14.14A53.58,53.58,0,0,1,160,99.92V78.72h19.48v21a79.42,79.42,0,0,1,20.82,5.35A55.22,55.22,0,0,1,216.7,115.2l-8.41,18q-13.93-11.46-30.17-13.76v41.45a137.07,137.07,0,0,1,21.2,7A36,36,0,0,1,213.45,179q5.73,7.45,5.73,19.49A35.14,35.14,0,0,1,208.39,224.55Zm-60.07-75.06q4.59,4.11,13,7V119.59q-8.22,1.72-12.89,6.69a17.36,17.36,0,0,0-4.68,12.42A13.79,13.79,0,0,0,148.32,149.49Zm42,61.88q4.2-4.68,4.2-12.13a12,12,0,0,0-4.2-9.55q-4.2-3.63-12.22-6.11v34.19Q186.13,216,190.34,211.37Z"/></g></g></svg>