<svg xmlns="http://www.w3.org/2000/svg" viewBox="0 0 576.36 521.32"><defs><style>.cls-1{fill:#1a1a1a;}.cls-2{fill:#fff;}</style></defs><g id="Layer_2" data-name="Layer 2"><g id="Layer_1-2" data-name="Layer 1"><path class="cls-1" d="M509.34,131.81c-.07,18.84-5.44,45.37-17.59,74.39-17.09,40.85-32.71,84.44-16.22,111.14,9.8,15.87,22.81,24.49,35.35,25.63a52.35,52.35,0,0,0,64.19-40.73h0c1.74-5.9,1.59-12.05.3-18.68a51.76,51.76,0,0,0-2.59-9.82c-7.92-24.66-26.75-56.82-32.27-107.91-1.34-25-2.06-39.12-14-53.67a59.62,59.62,0,0,0-11.22-11.11,58,58,0,0,0-5.17-3.21l7.41,7.4a13,13,0,0,1,0,18.41Zm13.1,193.67c-.72,2.32-6,3.81-8.25,3.1-12.53-3.82-21-10.78-26.05-18.81A46.25,46.25,0,0,1,481.31,285a50.82,50.82,0,0,1,1.92-14,4.39,4.39,0,0,1,8.42,2.47A40.69,40.69,0,0,0,490.08,285c0,6.59,1.9,10.69,5.9,17s13.09,11.71,23.87,15.06C522.15,317.71,523.14,323.17,522.44,325.48Z"/><path class="cls-1" d="M32.59,209.8c-35.1,7.15-44,51-16.05,79l108,108,108,108c27.95,28,71.83,19,78.95-16.06l46.7-229.65,108-108,2.73,2.74a13,13,0,0,0,18.41,0l22-22,8.17-8.16a13,13,0,0,0,0-18.41l-7.41-7.4L466.79,54.53,416.08,3.82a13,13,0,0,0-18.43,0L367.47,34a13,13,0,0,0,0,18.41l2.74,2.74-108,108Zm379.52-30.39a9.86,9.86,0,1,1,0-13.95A9.86,9.86,0,0,1,412.11,179.41ZM370,45.07a4.85,4.85,0,0,1,0-6.79l.08-.06a4.79,4.79,0,0,1,6.79,0L430,91.35l53.07,53.09a4.79,4.79,0,0,1,0,6.79l-.06.07a4.81,4.81,0,0,1-6.79,0L423.16,98.21ZM289.61,450.16c-5.58,27.5-39.93,34.48-61.84,12.58L143.64,378.6,58.58,293.55c-21.9-21.9-14.93-56.26,12.57-61.85l63.66-12.95c-1.87,31.26,15.41,61.87,59.67,68.69,14.39,2.66,25.88,3.46,35.94,4.36,27.54,2.5,44.4,5.9,81,51.11ZM338.35,149a14.55,14.55,0,0,1,20.58,20.58A14.55,14.55,0,1,1,338.35,149ZM277,244.45a22.1,22.1,0,0,1,37.45-12.54A22.12,22.12,0,1,1,277,244.45Z"/><path class="cls-2" d="M488.66,268a4.39,4.39,0,0,0-5.43,3,50.82,50.82,0,0,0-1.92,14,46.25,46.25,0,0,0,6.83,24.79c5,8,13.52,15,26.05,18.81,2.3.71,7.53-.78,8.25-3.1s-.29-7.77-2.59-8.48c-10.78-3.35-19.87-8.79-23.87-15.06s-5.93-10.37-5.9-17a40.69,40.69,0,0,1,1.57-11.56A4.38,4.38,0,0,0,488.66,268Z"/></g></g></svg>