<svg xmlns="http://www.w3.org/2000/svg" viewBox="0 0 226.64 227.35"><defs><style>.cls-1{fill-rule:evenodd;}</style></defs><g id="Layer_2" data-name="Layer 2"><g id="Layer_1-2" data-name="Layer 1"><path class="cls-1" d="M76.07,181c-3.08,6.62-2.66,14-5.14,20.93-2.35,6.51-4.1,12.79-5.91,19.46-1.33,4.9-9.12,7.62-9.28.63-.16-6.84,4.86-13.54,7.77-19.33,3.34-6.63,3.4-13,4.26-20.19.82-6.78,4.82-9.1,7.89-14.49,2.31-4.05-4-17.14-4.83-21.75a97,97,0,0,1-1.48-24.11c-1.48-.13-1.46,2.89-2,3.65s-3.31-2.42-5.29-2c-9.74,2.09-19.22-5.21-29-5.19-9.23,0-17.18,3.88-25.42,7.51C-1,129.92-2.79,123,4.75,119.34c14.49-7.06,35.37-13.11,49.66-3.43,10.32,7,11.13-10.46,10.23-15.64-.36-2.07-.63-8.61-2-10.19-1.73-1.93-1.91,2.12-3.11,2.45,2.09-7.81-21.95-16.25-28.2-18.37-2.69-.91-3.19-9.72-3.27-11.94-.22-6,6.48-11.66,9.29-16.46a6.31,6.31,0,0,0,1.54-6c-1.56-3.59,2.49-3.58,3.73-5.84,3.65-6.63-2.22-12.75-5.65-18-5.15-7.88-3-6.13.22-12.66C40.06-2.7,43.3.51,46,5c7.35,12.23,8.79,16.82,24,17,4.45,0,8.14-4,11.15-3.59,5.67.8,9.68,2.46,15.78,2.48,12.31,0,9.31,19.07,10.11,28.46s15.43,11.78,20.37,18.46,8.18-6.19,8-8.76c-.57-7.07-1-11.43,3.07-17.58,4.66-7.08,17.44-29.56,27.33-29.92,11.1-.4-2,10.62-3.5,11.87a64.42,64.42,0,0,0-13.7,16.3c-3,4.83-13.49,30.78-6.06,33.47C149.81,75.78,157,78.68,163.9,82c4.67,2.23,13.52,9.63,19,7.94q2.2-1.64,4.46-3.21c2.84-.66,6.31,2.68,9.67,2.4,6.77-.56,12.25-6,17.27-10a11.22,11.22,0,0,1,6.34-3.52c3.39.13,5.75,5,2.71,7.31-3.85,2.93-5.78,8.07-10.48,10l-4,.86c0,1.93-.18,5.07-2.93,4.71-5-.64-6.64-1.24-11.92.25,2.06,3.93,8.53,6.55,12,9.12A65.28,65.28,0,0,1,220.33,122c6,8.43,11.49,24.33-2.29,28.21-12.91,3.62-31.25-2.19-43.66-5.86-14.19-4.19-14.75,10-24.81,16.14-4.46,2.71-9.43,4.43-14.34,6.12-6,2.07-4,9.38-4.74,14.52-1.67,12-1.54,29.26-7.68,39.82-7.72,13.26-20.76,3-27.54-5.14a63.82,63.82,0,0,1-10.4-18.09c-2.12-5.52-2.55-14.09-8.8-16.75C75,183.26,80.07,182.7,76.07,181ZM47.77,64.22c1.16-.93,2.76,2.18,3.3-.07.85-3.6,2.9-6.66,4.86-9.72,2.51-3.92-3-3.49-3-6.28s6.81-6.2,8.54-7.45c2-1.46,6.65-6.29,9.51-5.67s1.95,5.24,5.93,4.12c5.74-1.6,12.09-5.06,16.19,1.7.17.28,4.91,17.52,6.53,10.4,1.32-5.77,1.47-12.55-2.34-17.46C87.08,20.7,63,32.12,49.16,23.29,52.3,39.89,44.24,44.85,37,58.43c-4.52,8.48,5.09,10.28,9.1,15.38,1.08,1.38,3.75-2.19,3.39-2.08,1.89-.61,3.08,3.11,4.58,3.63,1.6-5.85-5-6.53-6.32-11.14C49,63.25,49,68.49,47.77,64.22Z"/></g></g></svg>