<svg xmlns="http://www.w3.org/2000/svg" viewBox="0 0 466.87 324.72"><defs><style>.cls-1{fill:#1a1a1a;}</style></defs><g id="Layer_2" data-name="Layer 2"><g id="Layer_1-2" data-name="Layer 1"><path class="cls-1" d="M3.14,317.19s-8.14,7.89,5.6,6.61,47.31-5.33,74.78-29.25C55.54,293.54,21.2,296.84,3.14,317.19Z"/><path class="cls-1" d="M6,324.63H6c-3.27,0-5.16-.72-5.76-2.21-1-2.36,2.07-5.38,2.41-5.72,14.66-16.51,42-24.22,80.88-22.83a.68.68,0,0,1,.42,1.2C64.82,311.73,39.53,321.63,8.8,324.48Q7.27,324.63,6,324.63Zm68.76-29.56c-33.9,0-57.82,7.6-71.12,22.58-.74.72-2.65,3-2.13,4.26.35.87,2,1.35,4.49,1.35H6c.79,0,1.69-.05,2.66-.14C38.41,320.36,63,311,81.73,295.18,79.37,295.11,77,295.07,74.77,295.07Z"/><path class="cls-1" d="M315.11,79.34C293.86,47.66,261.65.14,254.55.69,154.79,9.63,75.68,57.78,44,81.87,32.69,88.43,36.89,132.79,53.46,197,90.05,194.28,233.06,177.68,315.11,79.34Z"/><path class="cls-1" d="M53.46,197.64a.68.68,0,0,1-.66-.51c-17.3-67-20.62-109.19-9.11-115.85C59.14,69.51,142.27,10.06,254.49,0h.18c6.67,0,29.22,31.57,61,79a.69.69,0,0,1,0,.82c-35,42-84.88,73.89-148.19,94.89a491.57,491.57,0,0,1-113.94,23ZM254.67,1.37c-111.91,10-194.75,69.27-210.23,81C33.63,88.68,37.22,131.19,54,196.23,214.07,184.35,293.29,104.28,314.26,79.3,298.38,55.62,261.94,1.37,254.67,1.37Z"/><path class="cls-1" d="M328.85,99.76c-3.41-5-8.21-12.17-13.74-20.42C233.06,177.68,90.05,194.28,53.46,197q3.81,14.72,8.46,30.76S224.28,222.9,328.85,99.76Z"/><path class="cls-1" d="M61.92,228.41a.68.68,0,0,1-.66-.5c-3-10.44-5.88-20.8-8.46-30.78a.71.71,0,0,1,.1-.57.66.66,0,0,1,.51-.28c161.31-11.8,240.69-92.82,261.18-117.37a.72.72,0,0,1,.56-.25.71.71,0,0,1,.53.3l2.64,3.94c4.41,6.59,8.24,12.31,11.1,16.47a.69.69,0,0,1-.05.83c-54.12,63.74-124,95.2-173,110.37-53.14,16.44-94,17.82-94.43,17.84Zm-7.59-30.83c2.48,9.56,5.2,19.46,8.09,29.44,5-.22,43.88-2.39,93.59-17.77,48.76-15.08,118.13-46.33,172-109.54-2.82-4.12-6.54-9.68-10.81-16l-2.13-3.19c-35,41.62-84.64,73.31-147.6,94.19A492.85,492.85,0,0,1,54.33,197.58Z"/><path class="cls-1" d="M465.76,97.69c-3.44-9.63-96.32-7.57-136.91,2.07-104.57,123.14-266.93,128-266.93,128C10.32,284.82.68,324,.68,324S10.31,301.33,79.11,300s130,4.13,251.12-61.23C428.61,180.94,470.94,112.17,465.76,97.69Z"/><path class="cls-1" d="M.68,324.72a.52.52,0,0,1-.21,0,.67.67,0,0,1-.45-.81c0-.09,2.53-10.08,11.32-26.9,8.1-15.49,23.37-40.16,50.07-69.71a.72.72,0,0,1,.49-.22c.4,0,41.14-1.4,94.11-17.79,48.86-15.11,118.42-46.46,172.32-109.93a.72.72,0,0,1,.36-.23c20.74-4.92,58.36-8.35,91.5-8.35,16.36,0,44.12.87,46.22,6.73C472,113.13,426.5,183,330.57,239.32,220,299,160.36,299.67,97.22,300.39c-6,.07-12,.13-18.09.26C11.75,302,1.41,324.08,1.31,324.31A.69.69,0,0,1,.68,324.72ZM62.23,228.4C21,274.12,6.61,308.59,2.64,320.07c5.93-6.6,24.25-19.75,76.46-20.79,6.08-.12,12.09-.19,18.1-.26,63-.71,122.45-1.38,232.7-60.89,100.51-59,139.84-127.3,135.22-140.21-1-2.68-13.3-5.82-44.93-5.82-32.93,0-70.28,3.4-91,8.27-54.11,63.62-123.86,95-172.86,110.2C105.6,226.28,66,228.24,62.23,228.4Z"/></g></g></svg>