<svg xmlns="http://www.w3.org/2000/svg" width="664.066" height="87.563" viewBox="0 0 664.066 87.563">
  <defs>
    <style>
      .cls-1 {
        fill: #f1afc4;
        fill-rule: evenodd;
      }
    </style>
  </defs>
  <path id="Color_Fill_1" data-name="Color Fill 1" class="cls-1" d="M701.509,45.985q-2.31.111-4.509,0.11-3.741,0-6.985-.11t-7.425-.22v2.2a9.865,9.865,0,0,1,6.93,2.585q2.529,2.475,2.64,8.14t-2.971,15.455l-11.11,35.53,3.191-6.71L666.2,57.2a13.705,13.705,0,0,1-1.045-5.775,3.141,3.141,0,0,1,2.144-2.64,16.937,16.937,0,0,1,5.28-.825v-2.2q-2.749.111-7.314,0.22t-9.735.11q-5.172,0-10.231-.11t-8.8-.22v2.2a5.861,5.861,0,0,1,3.3,1.21,7.761,7.761,0,0,1,2.31,3.96l23.1,70.51q1.32-.108,2.8-0.165t2.915-.055q1.539,0,3.024.055t2.805,0.165l18.481-60.28q2.2-7.149,4.949-10.67a15.951,15.951,0,0,1,5.28-4.73v-2.2Q703.821,45.876,701.509,45.985Zm-81.619,0q-3.741.111-8.58,0.11t-10.175-.11q-5.337-.108-9.295-0.22v2.2a5.852,5.852,0,0,1,3.3,1.65A13.373,13.373,0,0,1,598.33,55l25.52,68.64q1.318-.108,2.8-0.165t2.914-.055q1.541,0,3.026.055t2.8,0.165l16.829-47.52-1.54-3.19-13.2,35.75,3.08-4.73L623.96,57.2a19.994,19.994,0,0,1-.825-3.685,7.334,7.334,0,0,1,.33-3.63,2.987,2.987,0,0,1,2.475-1.925v-2.2Q623.63,45.876,619.89,45.985ZM722.025,122.05a20.472,20.472,0,0,0,5.775-5.995,9.517,9.517,0,0,0,1.155,4.125,7.311,7.311,0,0,0,3.63,3.08,18.455,18.455,0,0,0,7.315,1.155,28.115,28.115,0,0,0,7.535-.99,15.244,15.244,0,0,0,6-3.08l-1.1-1.87q-0.771.552-1.6,1.1a3.026,3.026,0,0,1-1.705.55,1.384,1.384,0,0,1-1.375-.99,11.964,11.964,0,0,1-.385-3.74V85.915a54,54,0,0,0-.66-9.35,11.521,11.521,0,0,0-2.97-6.05,15.6,15.6,0,0,0-7.92-4.455,45.382,45.382,0,0,0-10.01-1.045,55,55,0,0,0-9.68.825,24.86,24.86,0,0,0-7.92,2.7A16.188,16.188,0,0,0,703,72.88a9.615,9.615,0,0,0-1.705,5.775,9.945,9.945,0,0,0,2.42,6.82,8.6,8.6,0,0,0,6.82,2.75,11.081,11.081,0,0,0,7.26-2.53,8.485,8.485,0,0,0,3.08-6.93,9.862,9.862,0,0,0-1.76-5.665,11.268,11.268,0,0,0-5.61-4.015,9.526,9.526,0,0,1,2.8-1.375,11.25,11.25,0,0,1,3.355-.5,7.027,7.027,0,0,1,4.95,1.54,7.917,7.917,0,0,1,2.255,3.63,13.949,13.949,0,0,1,.605,3.85v9.79a4.958,4.958,0,0,1-2.09,4.125,19.332,19.332,0,0,1-5.445,2.75q-3.355,1.155-7.095,2.365a42.181,42.181,0,0,0-7.1,3.025,15.881,15.881,0,0,0-5.445,4.73,12.628,12.628,0,0,0-2.09,7.535,15.707,15.707,0,0,0,1.485,6.71,11.775,11.775,0,0,0,4.785,5.17,16.27,16.27,0,0,0,8.47,1.98A15.793,15.793,0,0,0,722.025,122.05Zm-2.64-8.14q-1.6-1.7-1.6-5.885a15.838,15.838,0,0,1,.715-5.005,14.638,14.638,0,0,1,1.87-3.8,29.4,29.4,0,0,1,2.475-3.08q1.32-1.428,2.585-2.805a13.907,13.907,0,0,0,2.035-2.8v23.21a4.855,4.855,0,0,1-4.07,1.87A5.259,5.259,0,0,1,719.385,113.91Zm53.9-75.13Q768.5,39.167,763,39.165q-3.3,0-6.82-.33v2.31q3.519,0,4.84,2.365t1.32,7.315v62.59q0,4.62-1.375,6.27t-4.785,1.65v2.31q2.42-.108,7.15-0.275t9.35-.165q4.62,0,9.02.165t6.6,0.275v-2.31q-3.411,0-4.785-1.65t-1.375-6.27V37.625A83.721,83.721,0,0,1,773.284,38.78Zm35.529,13.64A45.277,45.277,0,0,1,798.2,53.575v12.98h-8.36v2.2h8.36v37.4a53,53,0,0,0,.66,9.3,11.1,11.1,0,0,0,3.08,5.995,11.634,11.634,0,0,0,4.785,2.805,21.41,21.41,0,0,0,6.545.935,17.7,17.7,0,0,0,9.515-2.365,18.021,18.021,0,0,0,6.105-6.325l-1.65-1.32a8.277,8.277,0,0,1-3.08,2.475,7.38,7.38,0,0,1-2.86.715,3.1,3.1,0,0,1-2.53-.935,4.747,4.747,0,0,1-.77-3.025V68.755h10.78v-2.2H818V48.735A34.643,34.643,0,0,1,808.813,52.42Zm36.629,15.73a23.176,23.176,0,0,0-10.175,9.79q-3.741,6.657-3.74,17.215,0,11.112,3.41,17.71a20.709,20.709,0,0,0,9.185,9.46,28.483,28.483,0,0,0,12.815,2.86,21.232,21.232,0,0,0,11.22-2.805,23.828,23.828,0,0,0,7.535-7.15,32.481,32.481,0,0,0,4.235-8.745l-1.87-.66a18.83,18.83,0,0,1-4.95,4.895,14.34,14.34,0,0,1-4.675,2.035,18.714,18.714,0,0,1-3.685.44,11.835,11.835,0,0,1-5.885-1.65,12.255,12.255,0,0,1-4.84-5.94q-1.926-4.29-1.925-11.99V91.3a21.924,21.924,0,0,1,.11-2.2l-0.44-.88q0.549-11.328,2.42-16t4.84-4.675q2.089,0,3.3,2.75a26.43,26.43,0,0,1,1.76,7.315,71.5,71.5,0,0,1,.44,9.955h-18.59l0.22,2.09h34.43q0-13.308-5.555-18.975T859.8,65.015A32.341,32.341,0,0,0,845.442,68.15Zm73.48-2.255a13.7,13.7,0,0,0-4.785,2.695,14.916,14.916,0,0,0-3.52,4.675v-7.92a83.7,83.7,0,0,1-8.855,1.155q-4.785.387-10.285,0.385-3.3,0-6.82-.33v2.31q3.519,0,4.84,2.365t1.32,7.315v34.87q0,4.62-1.375,6.27t-4.785,1.65v2.31q2.529-.108,7.59-0.275t10.01-.165q5.28,0,10.285.165t7.535,0.275v-2.31q-5.061,0-7.26-1.87t-2.2-7.15v-33a10.366,10.366,0,0,1,.5-3.19,10.491,10.491,0,0,1,1.375-2.805,11.048,11.048,0,0,1,2.09-2.255,10.2,10.2,0,0,1,2.53-1.54,7.781,7.781,0,0,1,3.52-.77,14.617,14.617,0,0,0-4.015,4.07,10.982,10.982,0,0,0-1.595,6.16,7.292,7.292,0,0,0,2.475,5.72q2.475,2.2,7.315,2.2a9.692,9.692,0,0,0,7.315-2.915,10.864,10.864,0,0,0,2.805-7.865,15.824,15.824,0,0,0-.88-5.115,9.018,9.018,0,0,0-3.08-4.29,9.853,9.853,0,0,0-6.16-1.7A18.875,18.875,0,0,0,918.922,65.895ZM1061.1,45.985c-1.54.074-3.05,0.11-4.51,0.11q-3.75,0-6.99-.11c-2.16-.072-4.64-0.146-7.42-0.22v2.2a9.872,9.872,0,0,1,6.93,2.585q2.52,2.475,2.64,8.14t-2.97,15.455l-11.11,35.53,3.19-6.71L1025.79,57.2a13.794,13.794,0,0,1-1.05-5.775,3.139,3.139,0,0,1,2.15-2.64,16.864,16.864,0,0,1,5.28-.825v-2.2q-2.76.111-7.32,0.22c-3.04.074-6.29,0.11-9.73,0.11s-6.86-.036-10.23-0.11-6.312-.146-8.8-0.22v2.2a5.866,5.866,0,0,1,3.3,1.21,7.777,7.777,0,0,1,2.314,3.96l23.1,70.51c0.88-.072,1.81-0.127,2.8-0.165s1.96-.055,2.92-0.055c1.02,0,2.03.019,3.02,0.055s1.93,0.093,2.81.165l18.48-60.28q2.19-7.149,4.95-10.67a15.893,15.893,0,0,1,5.28-4.73v-2.2Q1063.41,45.876,1061.1,45.985Zm-81.624,0q-3.741.111-8.58,0.11t-10.175-.11q-5.337-.108-9.295-0.22v2.2a5.849,5.849,0,0,1,3.3,1.65,13.373,13.373,0,0,1,3.19,5.39l25.52,68.64q1.32-.108,2.8-0.165t2.915-.055q1.539,0,3.025.055t2.8,0.165l16.834-47.52-1.54-3.19-13.2,35.75,3.084-4.73L983.546,57.2a19.994,19.994,0,0,1-.825-3.685,7.334,7.334,0,0,1,.33-3.63,2.987,2.987,0,0,1,2.475-1.925v-2.2Q983.216,45.876,979.476,45.985Zm100.484-7.2q-4.785.387-10.28,0.385c-2.2,0-4.48-.11-6.82-0.33v2.31c2.34,0,3.96.789,4.84,2.365s1.32,4.015,1.32,7.315v62.59q0,4.62-1.38,6.27t-4.78,1.65v2.31q2.415-.108,7.15-0.275t9.35-.165c2.86,0,5.64.055,8.36,0.165s4.76,0.2,6.16.275v-2.31a4.432,4.432,0,0,1-3.91-1.65q-1.155-1.65-1.15-6.27V78.655a7.515,7.515,0,0,1,1.15-4.125,8.056,8.056,0,0,1,2.97-2.805,7.837,7.837,0,0,1,3.8-.99,5.578,5.578,0,0,1,3.13.77,4.506,4.506,0,0,1,1.71,2.31,11.748,11.748,0,0,1,.55,3.85v35.75q0,4.62-1.1,6.27t-3.96,1.65v2.31q2.19-.108,6.6-0.275,4.395-.165,9.02-0.165,4.29,0,8.74.165t6.66,0.275v-2.31c-2.28,0-3.87-.55-4.79-1.65s-1.37-3.19-1.37-6.27V83.6a41.085,41.085,0,0,0-.77-8.91,12.683,12.683,0,0,0-2.42-5.28,11.727,11.727,0,0,0-4.46-3.135,20.471,20.471,0,0,0-7.97-1.265,26.08,26.08,0,0,0-10.4,1.925,15.163,15.163,0,0,0-7.09,6.325V37.625A84.03,84.03,0,0,1,1079.96,38.78Zm58.19,1.21q-3.135,2.367-3.14,7.095t3.14,7.095q3.135,2.367,8.85,2.365t8.86-2.365q3.135-2.364,3.13-7.095t-3.13-7.095q-3.135-2.364-8.86-2.365T1138.15,39.99Zm10.56,26.51q-4.785.387-10.29,0.385-3.3,0-6.82-.33v2.31q3.525,0,4.84,2.365t1.32,7.315v34.87c0,3.08-.45,5.17-1.37,6.27s-2.51,1.65-4.79,1.65v2.31q2.43-.108,7.15-0.275c3.16-.11,6.27-0.165,9.35-0.165s6.09,0.055,9.02.165,5.14,0.2,6.6.275v-2.31q-3.4,0-4.78-1.65t-1.38-6.27V65.345A83.455,83.455,0,0,1,1148.71,66.5Zm35.42-14.08a45.3,45.3,0,0,1-10.62,1.155v12.98h-8.36v2.2h8.36v37.4a53,53,0,0,0,.66,9.3,11.125,11.125,0,0,0,3.08,5.995,11.64,11.64,0,0,0,4.79,2.805,21.368,21.368,0,0,0,6.54.935,17.7,17.7,0,0,0,9.52-2.365,18.007,18.007,0,0,0,6.1-6.325l-1.65-1.32a8.246,8.246,0,0,1-3.08,2.475,7.364,7.364,0,0,1-2.86.715,3.111,3.111,0,0,1-2.53-.935,4.772,4.772,0,0,1-.77-3.025V68.755h10.78v-2.2h-10.78V48.735A34.557,34.557,0,0,1,1184.13,52.42Zm36.63,15.73a23.171,23.171,0,0,0-10.18,9.79q-3.735,6.657-3.74,17.215,0,11.112,3.41,17.71a20.7,20.7,0,0,0,9.19,9.46,28.474,28.474,0,0,0,12.81,2.86,21.232,21.232,0,0,0,11.22-2.805,23.908,23.908,0,0,0,7.54-7.15,32.55,32.55,0,0,0,4.23-8.745l-1.87-.66a18.711,18.711,0,0,1-4.95,4.895,14.346,14.346,0,0,1-4.67,2.035,18.725,18.725,0,0,1-3.69.44,11.809,11.809,0,0,1-5.88-1.65,12.207,12.207,0,0,1-4.84-5.94q-1.935-4.29-1.93-11.99V91.3c0-.732.04-1.466,0.11-2.2l-0.44-.88q0.555-11.328,2.42-16t4.84-4.675q2.085,0,3.3,2.75a26.394,26.394,0,0,1,1.76,7.315,71.342,71.342,0,0,1,.44,9.955h-18.59l0.22,2.09h34.43q0-13.308-5.55-18.975t-15.24-5.665A32.319,32.319,0,0,0,1220.76,68.15Z" transform="translate(-591.844 -37.625)"/>
</svg>
